General                          : ChattChitto RG - Movies

Complete name                    : Sherlock Holmes 2009 BDRip.mp4
Format                           : MPEG-4
Format profile                   : Base Media
Codec ID                         : isom
File size                        : 2.38 GiB
Duration                         : 2h 8mn
Overall bit rate                 : 2 658 Kbps
Encoded date                     : UTC 2010-05-06 14:37:35

Video
==========
ID                               : 1
Format                           : AVC
Format/Info                      : Advanced Video Codec
Format profile                   : High@L3.1
Format settings, CABAC           : Yes
Format settings, ReFrames        : 3 frames
Codec ID                         : avc1
Codec ID/Info                    : Advanced Video Coding
Duration                         : 2h 8mn
Bit rate mode                    : Variable
Bit rate                         : 2 300 Kbps
Maximum bit rate                 : 21.9 Mbps
Width                            : 1 280 pixels
Height                           : 720 pixels
Display aspect ratio             : 16:9 | 1.78:1
Frame rate mode                  : Constant
Frame rate                       : 23.976 fps
Resolution                       : 8 bits
Colorimetry                      : 4:2:0
Scan type                        : Progressive
Bits/(Pixel*Frame)               : 0.104
Stream size                      : 2.06 GiB (87%)
Writing library                  : x264 core 76 r1271 496d79d
Encoded date                     : UTC 2010-05-06 14:24:42

Audio
==========
ID                               : 2
Format                           : AAC
Format/Info                      : Advanced Audio Codec
Format version                   : Version 4
Format profile                   : LC
Format settings, SBR             : No
Codec ID                         : 40
Duration                         : 2h 8mn
Bit rate mode                    : Variable
Bit rate                         : 352.8 Kbps
Maximum bit rate                 : 459 Kbps
Channel(s)                       : 6 channels
Channel positions                : Front: L C R, Side: L R, LFE
Sampling rate                    : 48.0 KHz
Stream size                      : 326 MiB (13%)
Encoded date                     : UTC 2010-05-06 14:38:57

Subtitles                        : English [SDH] | French | Portuguese | Spanish



----------------------------------------------------
IMDB Link: http://www.imdb.com/title/tt0988045/
----------------------------------------------------


Screen Shots:
============== 
http://bayimg.com/dAMCKaACH 
http://bayimg.com/damcjaAch 
http://bayimg.com/DAMcIaACh 
http://bayimg.com/DamcHaACH 
http://bayimg.com/daMCfAach



Plot:
======
Detective Sherlock Holmes and his stalwart partner Watson engage in a battle of wits and brawn with a nemesis whose plot is a threat to all of England.




Release Info:
==============
original name .... : Sherlock Holmes 2009 BDRip.mp4
ripper.............: Recalled2Life (R2L)
encoder............: Recalled2Life (R2L)
video codec........: H264/.MP4
video bitrate......: 2300 Kbps
audio codec........: AAC-LC
aspect ratio.......: 16:9 | 1.78:1
resolution.........: 1280 x 720
genre..............: Action | Adventure | Crime | Mystery | Thriller
runtime............: 2h 8mn
language...........: English
MPAA rating........: PG-13
subtitles..........: English [SDH] | French | Portuguese | Spanish
sample.............: Yes [15.1 MB]
2ch Audio..........: 2ch Audio for XBox Viewers
Compatibility .....: XBox 360 | PS3 | WD Live



Source:
========
Sherlock Holmes Blu-Ray 1080p VC-1/DTS-HD 5.1 [35.6 GB]


Notes:
=======
ChattChitto RG Encourages Burning this Film with ConvertXtoDVD.
XBox 360 | PS3 | WD Live - Compatible
Enhanced and Filtered for your viewing pleasure ;)